# xmcd CD database file
# Copyright (C) 1993-1998 Ti Kan
#
# Track frame offsets:
#	183
#	13073
#	27585
#	41535
#	65458
#	83350
#	122198
#	147868
#	162235
#	176805
#	193438
#	208688
#	226323
#	242423
#
# Disc length: 3517 seconds
#
# Revision: 1
# Processed by: cddbd v1.4b41PL1 Copyright (c) Steve Scherf et al.
# Submitted via: CDValet v3.31 - Copyright (c) 1997 Greg Leichner
#
DISCID=c00dbb0e
DTITLE=Chi-Lites - Greatest Hits
DYEAR=1900
DGENRE=
TTITLE0=Give It Away
TTITLE1=Are You My Woman (Tell Me So)
TTITLE2=For God's Sake (Give More Power To The People)
TTITLE3=Have You Seen Her
TTITLE4=Oh Girl
TTITLE5=The Coldest Day Of My Life
TTITLE6=A Letter To Myself
TTITLE7=Stoned Out Of My Mind
TTITLE8=I Found SunshineI 
TTITLE9=Homely Girl
TTITLE10=You Got To Be The One
TTITLE11=Toby
TTITLE12=It's Time For Love
TTITLE13=You Don't Have To Go
EXTD=
EXTT0=
EXTT1=
EXTT2=
EXTT3=
EXTT4=
EXTT5=
EXTT6=
EXTT7=
EXTT8=
EXTT9=
EXTT10=
EXTT11=
EXTT12=
EXTT13=
PLAYORDER=
